# xmcd
# 
# Track frame offsets:
#     187
#     24530
#     41325
#     60087
#     79455
#     102592
#     121947
#     138482
#     158870
#     180642
# 
# Disc length: 2643
# 
# Revision: 9
# Processed by: cddbd v1.5.2PL0 Copyright (c) Steve Scherf et al.
# Submitted via: BonkEnc v1.0.8
# 
DISCID=7d0a510a
DTITLE=Bon Jovi - Slippery When Wet
DYEAR=1986
DGENRE=Hard Rock
TTITLE0=Let It Rock
TTITLE1=You Give Love A Bad Name
TTITLE2=Livin' On A Prayer
TTITLE3=Social Disease
TTITLE4=Wanted Dead Or Alive
TTITLE5=Raise Your Hands
TTITLE6=Without Love
TTITLE7=I'd Die For You
TTITLE8=Never Say Goodbye
TTITLE9=Wild In The Streets
EXTD=YEAR: 1986
EXTT0=
EXTT1=
EXTT2=
EXTT3=
EXTT4=
EXTT5=
EXTT6=
EXTT7=
EXTT8=
EXTT9=
PLAYORDER=
